<mxfile host="app.diagrams.net" modified="2024-07-03T07:18:46.120Z" agent="Mozilla/5.0 (Windows NT 10.0; Win64; x64; rv:101.0) Gecko/20100101 Firefox/101.0" etag="Mz5tK9T7tt53MWQXW0Ak" border="50" scale="3" compressed="false" locked="false" version="24.6.4" type="github">
  <diagram name="Blank" id="YmL12bMKpDGza6XwsDPr">
    <mxGraphModel dx="2021" dy="741" grid="0" gridSize="10" guides="1" tooltips="1" connect="1" arrows="1" fold="1" page="0" pageScale="1" pageWidth="827" pageHeight="1169" background="none" math="1" shadow="0">
      <root>
        <mxCell id="X5NqExCQtvZxIxQ7pmgY-0" />
        <mxCell id="1" parent="X5NqExCQtvZxIxQ7pmgY-0" />
        <mxCell id="gcEa2sTKKUvQqcTSaWlS-8" value="" style="edgeStyle=orthogonalEdgeStyle;rounded=0;orthogonalLoop=1;jettySize=auto;html=1;" edge="1" parent="1" source="gcEa2sTKKUvQqcTSaWlS-2" target="gcEa2sTKKUvQqcTSaWlS-3">
          <mxGeometry relative="1" as="geometry" />
        </mxCell>
        <mxCell id="gcEa2sTKKUvQqcTSaWlS-2" value="" style="sketch=0;outlineConnect=0;fontColor=#232F3E;gradientColor=none;fillColor=#7AA116;strokeColor=none;dashed=0;verticalLabelPosition=bottom;verticalAlign=top;align=center;html=1;fontSize=12;fontStyle=0;aspect=fixed;pointerEvents=1;shape=mxgraph.aws4.iot_thing_temperature_humidity_sensor;" vertex="1" parent="1">
          <mxGeometry x="-701" y="194" width="78" height="78" as="geometry" />
        </mxCell>
        <mxCell id="gcEa2sTKKUvQqcTSaWlS-12" value="" style="edgeStyle=orthogonalEdgeStyle;rounded=0;orthogonalLoop=1;jettySize=auto;html=1;" edge="1" parent="1" source="gcEa2sTKKUvQqcTSaWlS-3" target="gcEa2sTKKUvQqcTSaWlS-4">
          <mxGeometry relative="1" as="geometry" />
        </mxCell>
        <mxCell id="gcEa2sTKKUvQqcTSaWlS-3" value="" style="pointerEvents=1;shadow=0;dashed=0;html=1;strokeColor=none;fillColor=#4495D1;labelPosition=center;verticalLabelPosition=bottom;verticalAlign=top;align=center;outlineConnect=0;shape=mxgraph.veeam.cpu;" vertex="1" parent="1">
          <mxGeometry x="-740.5" y="322" width="157" height="158" as="geometry" />
        </mxCell>
        <mxCell id="gcEa2sTKKUvQqcTSaWlS-17" value="" style="edgeStyle=orthogonalEdgeStyle;rounded=0;orthogonalLoop=1;jettySize=auto;html=1;" edge="1" parent="1" source="gcEa2sTKKUvQqcTSaWlS-4" target="gcEa2sTKKUvQqcTSaWlS-5">
          <mxGeometry relative="1" as="geometry" />
        </mxCell>
        <mxCell id="gcEa2sTKKUvQqcTSaWlS-4" value="" style="shape=mxgraph.cisco.wireless.wireless_transport;html=1;pointerEvents=1;dashed=0;fillColor=#036897;strokeColor=#ffffff;strokeWidth=2;verticalLabelPosition=bottom;verticalAlign=top;align=center;outlineConnect=0;" vertex="1" parent="1">
          <mxGeometry x="-700" y="534" width="77" height="54" as="geometry" />
        </mxCell>
        <mxCell id="gcEa2sTKKUvQqcTSaWlS-26" value="" style="edgeStyle=orthogonalEdgeStyle;rounded=0;orthogonalLoop=1;jettySize=auto;html=1;" edge="1" parent="1" source="gcEa2sTKKUvQqcTSaWlS-5" target="gcEa2sTKKUvQqcTSaWlS-6">
          <mxGeometry relative="1" as="geometry" />
        </mxCell>
        <mxCell id="gcEa2sTKKUvQqcTSaWlS-5" value="" style="image;html=1;image=img/lib/clip_art/computers/Monitor_128x128.png" vertex="1" parent="1">
          <mxGeometry x="-519" y="521" width="80" height="80" as="geometry" />
        </mxCell>
        <mxCell id="gcEa2sTKKUvQqcTSaWlS-25" value="" style="edgeStyle=orthogonalEdgeStyle;rounded=0;orthogonalLoop=1;jettySize=auto;html=1;" edge="1" parent="1" source="gcEa2sTKKUvQqcTSaWlS-6" target="gcEa2sTKKUvQqcTSaWlS-5">
          <mxGeometry relative="1" as="geometry" />
        </mxCell>
        <mxCell id="gcEa2sTKKUvQqcTSaWlS-6" value="" style="outlineConnect=0;dashed=0;verticalLabelPosition=bottom;verticalAlign=top;align=center;html=1;shape=mxgraph.aws3.mysql_db_instance;fillColor=#2E73B8;gradientColor=none;" vertex="1" parent="1">
          <mxGeometry x="-354" y="528.75" width="60" height="64.5" as="geometry" />
        </mxCell>
        <mxCell id="gcEa2sTKKUvQqcTSaWlS-19" value="C51单片机" style="text;strokeColor=none;align=center;fillColor=none;html=1;verticalAlign=middle;whiteSpace=wrap;rounded=0;" vertex="1" parent="1">
          <mxGeometry x="-583.5" y="386" width="80" height="30" as="geometry" />
        </mxCell>
        <mxCell id="gcEa2sTKKUvQqcTSaWlS-20" value="温湿度传感器" style="text;strokeColor=none;align=center;fillColor=none;html=1;verticalAlign=middle;whiteSpace=wrap;rounded=0;" vertex="1" parent="1">
          <mxGeometry x="-609" y="228" width="80" height="30" as="geometry" />
        </mxCell>
        <mxCell id="gcEa2sTKKUvQqcTSaWlS-21" value="无线传输模块" style="text;strokeColor=none;align=center;fillColor=none;html=1;verticalAlign=middle;whiteSpace=wrap;rounded=0;" vertex="1" parent="1">
          <mxGeometry x="-702" y="597" width="80" height="30" as="geometry" />
        </mxCell>
        <mxCell id="gcEa2sTKKUvQqcTSaWlS-22" value="上位机监视器" style="text;strokeColor=none;align=center;fillColor=none;html=1;verticalAlign=middle;whiteSpace=wrap;rounded=0;" vertex="1" parent="1">
          <mxGeometry x="-519" y="597" width="80" height="30" as="geometry" />
        </mxCell>
        <mxCell id="gcEa2sTKKUvQqcTSaWlS-23" value="数据库" style="text;strokeColor=none;align=center;fillColor=none;html=1;verticalAlign=middle;whiteSpace=wrap;rounded=0;" vertex="1" parent="1">
          <mxGeometry x="-370" y="597" width="80" height="30" as="geometry" />
        </mxCell>
        <mxCell id="gcEa2sTKKUvQqcTSaWlS-27" value="3102038程睦展" style="text;strokeColor=none;align=center;fillColor=none;html=1;verticalAlign=middle;whiteSpace=wrap;rounded=0;" vertex="1" parent="1">
          <mxGeometry x="-468" y="228" width="114" height="30" as="geometry" />
        </mxCell>
      </root>
    </mxGraphModel>
  </diagram>
</mxfile>
